<?xml version="1.0" standalone="no"?>
<!DOCTYPE svg PUBLIC "-//W3C//DTD SVG 20010904//EN"
 "http://www.w3.org/TR/2001/REC-SVG-20010904/DTD/svg10.dtd">
<svg version="1.0" xmlns="http://www.w3.org/2000/svg"
 width="600.000000pt" height="600.000000pt" viewBox="0 0 600.000000 600.000000"
 preserveAspectRatio="xMidYMid meet">
<metadata>
Created by potrace 1.14, written by Peter Selinger 2001-2017
</metadata>
<g transform="translate(0.000000,600.000000) scale(0.100000,-0.100000)"
fill="#000000" stroke="none">
<path d="M3969 5616 c-2 -2 -32 -6 -65 -10 -142 -15 -404 -101 -594 -196 -241
-120 -408 -246 -638 -484 -69 -71 -82 -76 -195 -81 -40 -2 -74 -4 -77 -5 -3
-1 -9 -3 -15 -4 -96 -18 -216 -85 -289 -161 -104 -108 -163 -251 -197 -480
-21 -146 -22 -135 7 -135 19 0 45 18 93 65 78 78 122 95 177 69 67 -32 77 -98
44 -289 -31 -180 -32 -479 -3 -700 7 -58 58 -159 210 -420 53 -91 124 -246
138 -303 36 -138 24 -259 -49 -522 -78 -277 -91 -357 -90 -555 2 -250 48 -452
156 -675 84 -174 199 -310 310 -366 62 -32 158 -53 233 -52 34 0 71 -3 83 -6
33 -11 69 17 81 61 5 21 13 67 16 103 4 36 8 67 10 70 1 3 6 34 9 70 4 36 9
74 11 85 2 11 4 29 5 40 1 14 5 9 14 -15 46 -124 126 -343 126 -346 0 -2 14
10 32 26 32 29 104 58 143 58 43 0 109 -20 138 -40 l30 -21 -28 49 c-15 27
-34 58 -40 69 -17 28 -71 188 -85 250 -6 28 -15 93 -20 146 -4 54 -17 117 -28
145 -11 27 -37 93 -57 148 -86 228 -221 404 -429 563 -187 142 -252 218 -279
323 -22 85 -10 202 31 290 74 164 220 283 520 426 330 157 398 200 525 328 78
79 86 85 70 50 -10 -21 -35 -54 -56 -73 -66 -60 -82 -113 -52 -171 18 -34 56
-47 91 -32 13 6 43 38 68 71 24 33 51 67 60 76 27 28 82 45 133 41 56 -4 85
-17 124 -53 l26 -24 36 54 c68 104 146 287 162 381 3 14 10 54 16 89 12 70 15
276 4 326 -4 18 -8 42 -10 54 -12 90 -34 162 -83 271 l-35 80 18 95 c10 53 19
105 21 116 2 11 7 40 10 65 3 25 7 56 9 70 17 96 24 418 12 526 -15 128 -65
255 -129 329 -44 51 -157 114 -235 130 -31 7 -219 16 -224 11z"/>
</g>
</svg>
