<svg xmlns="http://www.w3.org/2000/svg" viewBox="0 0 150 150"><g id="レイヤー_2" data-name="レイヤー 2"><g id="レイヤー_1-2" data-name="レイヤー 1"><path d="M75,0a75,75,0,1,0,75,75A75,75,0,0,0,75,0Zm37.76,64.67a16.41,16.41,0,0,0-13-3.09c-1,.2-1.92-.84-2.14-1.74-.29-1.16-.4-2.33-.77-3.48a19.06,19.06,0,0,0-3.63-6.58A17.89,17.89,0,0,0,90.1,46.9,26.07,26.07,0,0,1,112.76,64.67Zm-49.9-1c-2.43,4.95-3.06,11-.81,16s7.67,8.74,13.15,8.15a11.55,11.55,0,0,0,8.24-5,11.42,11.42,0,0,0,1.83-4.87,11.8,11.8,0,0,0,.08-2.3c0-.4-.45-1.61.18-1.63s.89,1.11,1.07,1.5a11.83,11.83,0,0,1,.7,2.08,13.2,13.2,0,0,1-.87,8.64A16.5,16.5,0,0,1,76.29,94.7a23.62,23.62,0,0,1-13.43-.19c-3.77-1.1-7.54-3.18-9.26-6.71-1.35-2.78-1.23-6-.7-9.09A37.59,37.59,0,0,1,73.85,51.48C69.37,54.69,65.3,58.68,62.86,63.63ZM75,68.5A6.5,6.5,0,1,1,68.5,75,6.5,6.5,0,0,1,75,68.5Zm-3.77-9.7,1.67-2,3.34-3.93c.86-1,1.72-2.59.77-3.52A2.6,2.6,0,0,0,74.8,49a27.84,27.84,0,0,0-17.45,9.69c1.79-3.78,3.61-7.6,6.32-10.79s6.45-5.71,10.62-6c4.94-.4,9.72,2.34,13,6.07s5.3,8.35,7.28,12.9A18,18,0,0,0,80.7,56.24a16.25,16.25,0,0,0-4.76,1.2,20.24,20.24,0,0,0-3.86,2.15c-.22.16-2,1.26-2.15.8C69.86,60.09,71,59,71.23,58.8ZM75.7,34A9.13,9.13,0,0,1,78,33.23l1-.13,1.93-.23c1.29-.14,2.58-.25,3.88-.3a30.14,30.14,0,0,1,4,.11A16.66,16.66,0,0,1,98.91,37a15.08,15.08,0,0,1,1.89,2.32c.53.79,1,1.64,1.42,2.46a5.5,5.5,0,0,1,.51.75c.38.88.74,1.78,1.11,2.67l2.21,5.34.27.67-4.76-3.26-2.39-1.63a7.57,7.57,0,0,0-1.07-.7L96.78,45,96.65,45a3.84,3.84,0,0,1-.8-.36,2,2,0,0,0-.58-.32,11.35,11.35,0,0,0-1.64-.45,10.52,10.52,0,0,0-2.57-.14,10.76,10.76,0,0,0-1.27.17l-.63.14a3.5,3.5,0,0,1-.59.18q-.48-.52-1-1a17.81,17.81,0,0,0-2.54-2A18.71,18.71,0,0,0,80.84,39a17.56,17.56,0,0,0-2.26-.62,1.92,1.92,0,0,0-.86,0l-.27,0-1.58.1c-1.17.1-2.33.24-3.5.34a17.61,17.61,0,0,1-7.41-.6ZM42.38,50.83A26.93,26.93,0,0,1,66,41.5c-.35,0-1.11.48-1.42.63-.48.24-1,.51-1.41.79a18.66,18.66,0,0,0-6.53,6.95,34.87,34.87,0,0,0-1.85,4.69,8.88,8.88,0,0,1-3.15,3.75c-2.29,1.82-4.76,3.4-7.05,5.23-3.84,3.05-7.33,7.35-7.08,12.25A26.93,26.93,0,0,1,42.38,50.83Zm30.38,60.32c-.36,0-.71.12-1.07.18l-1.11.19a10.47,10.47,0,0,0-1.12.19,5.59,5.59,0,0,1-1,.13l-1.12.07a40,40,0,0,1-4.38,0,42.38,42.38,0,0,1-4.36-.46c-.72-.12-1.44-.25-2.15-.41a5,5,0,0,0-.93-.16,2.64,2.64,0,0,1-.83-.24c-.67-.25-1.34-.52-2-.81-5.12-2.31-9.74-6.24-11.78-11.6-2.54-6.66-.75-14.14,1.53-20.9A32.91,32.91,0,0,1,46.3,69l.18-.25c.16-.22.32-.43.49-.64s.34-.42.52-.62.36-.39.55-.59l.58-.55c.2-.18.4-.36.61-.53s.42-.33.64-.48l.66-.44c.23-.14.46-.27.7-.39l.24-.13a3,3,0,0,0,.4-.2l.1,0,.12,0,.23-.08a.36.36,0,0,1,.27,0,.27.27,0,0,1,.11.19.41.41,0,0,1,0,.22l0,.05a1.41,1.41,0,0,1-.21.35l-.14.15s0,0,0,.06a.76.76,0,0,1-.11.14l-.18.22-.21.26c-.22.28-.44.57-.65.86a1.59,1.59,0,0,1-.15.21,1,1,0,0,0-.15.2l-.3.45c-.19.29-.36.59-.53.89s-.33.6-.48.91-.4.89-.57,1.35-.41,1.13-.59,1.71-.33,1.16-.48,1.75-.26,1.17-.37,1.77-.19,1.19-.26,1.79c0,.3-.06.6-.08.9-.07.76-.14,1.52-.18,2.28,0,.33,0,.66,0,1s0,.49,0,.74A18.7,18.7,0,0,0,47,84.53c0,.38.08.76.14,1.13,0,.19.07.38.1.56l.06.28a1.91,1.91,0,0,1,0,.21,2.7,2.7,0,0,0,.07.41c.07.31.15.61.23.92a18.42,18.42,0,0,0,.57,1.78c0,.14.11.27.16.4a.59.59,0,0,0,.07.16s.09.1.09.15a10.69,10.69,0,0,0,.79,1.34,12.63,12.63,0,0,0,1,1.21,10.37,10.37,0,0,0,1.15,1q.36.28.75.54c.12.08.26.15.37.24a3.28,3.28,0,0,0,.38.27,4.53,4.53,0,0,0,.46.3,12.67,12.67,0,0,0,2.11,1.07,11.29,11.29,0,0,0,1.12.37,1.91,1.91,0,0,1,.47.18,2.43,2.43,0,0,0,.6.17l.54.12c.64.14,1.29.26,1.93.37l1,.16.49.08a1.76,1.76,0,0,1,.4.06c.18.07.25.36.22.53-.12.61-.92.62-1.4.7a3,3,0,0,0-2,1.26,4.4,4.4,0,0,0-.38,1.18,2.08,2.08,0,0,0,0,1,5.25,5.25,0,0,0,.79,2A6.65,6.65,0,0,0,61.8,107a11.83,11.83,0,0,0,6.37,1c1.88-.16,3.73-.53,5.6-.73a2.37,2.37,0,0,1,.92,0,4.23,4.23,0,0,0,1,.12,10.19,10.19,0,0,1,2.44.45,15.79,15.79,0,0,1,4.81,3C79.61,110,76.13,110.57,72.76,111.15Zm10.16-8.35c-1.12.27-2.26.49-3.39.66s-2.29.3-3.44.38-2.3.12-3.45.1-2.29-.07-3.43-.18a17.93,17.93,0,0,1-2.51-.39,8.7,8.7,0,0,1-1.47-.48,5.52,5.52,0,0,1-.69-.34.91.91,0,0,1-.3-.19.54.54,0,0,1,0-.63,1.31,1.31,0,0,1,.89-.32,1.81,1.81,0,0,1,.52,0,2,2,0,0,0,.42,0l.88,0,1.75-.1c1.17-.09,2.33-.21,3.49-.37a28.57,28.57,0,0,0,2.94-.47,2.11,2.11,0,0,0,.44-.17,3.69,3.69,0,0,1,1-.29,19.19,19.19,0,0,0,2.27-.53,20.73,20.73,0,0,0,4.27-1.85,21,21,0,0,0,3.75-2.75,20,20,0,0,0,3-3.52,19,19,0,0,0,1.45-2.51c.08-.18.21-.32.29-.49s.19-.42.27-.63a11.52,11.52,0,0,0,.44-1.29A15.35,15.35,0,0,0,92.85,81a17.79,17.79,0,0,0-.3-2.07A19.59,19.59,0,0,0,92,76.64a29.2,29.2,0,0,0-2.26-5.12c-.45-.82-.93-1.62-1.42-2.42-.13-.19-.28-.32-.42-.5a15.18,15.18,0,0,0-2.18-2.21,13,13,0,0,0-5.35-2.68,11.51,11.51,0,0,0-2.68-.28,11.91,11.91,0,0,0-4.6,1,10.83,10.83,0,0,0-2,1.16c-.61.45-1.1,1.1-1.7,1.53-.23-.53,2.23-2.11,2.66-2.4a19.48,19.48,0,0,1,29.9,20.65C100,93.2,93.32,99.3,85.7,101.91l-.37.13c-.44.14-.88.28-1.33.4-.22.06-.44.11-.66.18S83.07,102.76,82.92,102.8Zm30.76-9.18a28.92,28.92,0,0,1-28,14.49c-.34,0-2-.11-2.15-.57-.08-.28,1.92-.56,2.26-.64a40.58,40.58,0,0,0,6.16-2,34.05,34.05,0,0,0,6.42-3.48c5.84-4.05,10.33-10.26,11.48-17.27s-1.35-14.71-7-19.07c6.08.33,11.37,5.16,13.2,11S116.69,88.33,113.68,93.62Z"/></g></g></svg>