<svg xmlns="http://www.w3.org/2000/svg" viewBox="0 0 136.43 50.27"><g id="レイヤー_2" data-name="レイヤー 2"><g id="レイヤー_1-2" data-name="レイヤー 1"><path d="M23.17,44.8v2.11a2.66,2.66,0,0,1-2.66,2.66H2.66A2.66,2.66,0,0,1,0,46.91V3.15A2.64,2.64,0,0,1,2.66.56h2.1A2.64,2.64,0,0,1,7.42,3.15V39.48A2.64,2.64,0,0,0,10,42.14h10.5A2.66,2.66,0,0,1,23.17,44.8Z"/><path d="M61.32,3.15V25.69c0,8.61,0,24.58-15.89,24.58s-15.89-16-15.89-24.58V3.15A2.64,2.64,0,0,1,32.2.56h2.1A2.64,2.64,0,0,1,37,3.15V25.69c0,14.7,2.59,17.15,8.47,17.15,7.28,0,8.47-5.25,8.47-17.15V3.15A2.64,2.64,0,0,1,56.56.56h2.1A2.64,2.64,0,0,1,61.32,3.15Z"/><path d="M100.59,35.7c0,7.91-6.79,14.36-15.12,14.36a25.21,25.21,0,0,1-16.73-6.17,2.25,2.25,0,0,1,.14-3.5l1.68-1.33a3.36,3.36,0,0,1,4,.07,18,18,0,0,0,10.85,3.5c4.27,0,7.77-3.08,7.77-6.93,0-4.62-2.52-5.74-9.1-7.7-5.81-1.68-13.79-3.92-13.79-13.65C70.28,6.44,77.07,0,85.47,0a21.28,21.28,0,0,1,12,3.36,2.24,2.24,0,0,1,.14,3.5L96.11,8.33A3.83,3.83,0,0,1,92,8.75,14.76,14.76,0,0,0,85.4,7.42c-4.2,0-7.7,3.15-7.7,6.93s1.82,4.69,8.4,6.58C91.84,22.61,100.59,25.13,100.59,35.7Z"/><path d="M116.9,10.5v9a2.63,2.63,0,0,0,2.59,2.59h8a2.66,2.66,0,0,1,2.66,2.66v2.1a2.66,2.66,0,0,1-2.66,2.66h-8a2.64,2.64,0,0,0-2.59,2.66v7.35a2.64,2.64,0,0,0,2.59,2.66H133.7a2.66,2.66,0,0,1,2.66,2.66v2.11a2.6,2.6,0,0,1-2.66,2.59H112.14a2.6,2.6,0,0,1-2.66-2.59V3.08A2.66,2.66,0,0,1,112.14.42h21.63a2.66,2.66,0,0,1,2.66,2.66v2.1a2.66,2.66,0,0,1-2.66,2.66H119.49A2.64,2.64,0,0,0,116.9,10.5Z"/></g></g></svg>